<!DOCTYPE svg PUBLIC "-//W3C//DTD SVG 1.1//EN" "http://www.w3.org/Graphics/SVG/1.1/DTD/svg11.dtd">
<!-- Uploaded to: SVG Repo, www.svgrepo.com, Transformed by: SVG Repo Mixer Tools -->
<svg width="800px" height="800px" viewBox="0 0 24 24" xmlns="http://www.w3.org/2000/svg" fill="none" transform="matrix(-1, 0, 0, 1, 0, 0)">
<g id="SVGRepo_bgCarrier" stroke-width="0"/>
<g id="SVGRepo_tracerCarrier" stroke-linecap="round" stroke-linejoin="round"/>
<g id="SVGRepo_iconCarrier">
<path fill="#000000" fill-rule="evenodd" d="M2 6a3 3 0 0 1 3-3h14a3 3 0 0 1 3 3v10a3 3 0 0 1-3 3H7.667a1 1 0 0 0-.6.2L3.6 21.8A1 1 0 0 1 2 21V6zm5 0a1 1 0 0 0 0 2h10a1 1 0 1 0 0-2H7zm0 4a1 1 0 1 0 0 2h10a1 1 0 1 0 0-2H7zm0 4a1 1 0 1 0 0 2h4a1 1 0 1 0 0-2H7z" clip-rule="evenodd"/>
</g>
</svg>